<svg width="12" height="12" viewBox="0 0 12 12" fill="none" xmlns="http://www.w3.org/2000/svg">
<path d="M10.1479 4.89799L6.39795 8.64799C6.34569 8.70043 6.28359 8.74204 6.21522 8.77043C6.14685 8.79882 6.07354 8.81343 5.99951 8.81343C5.92548 8.81343 5.85217 8.79882 5.7838 8.77043C5.71543 8.74204 5.65333 8.70043 5.60107 8.64799L1.85107 4.89799C1.7454 4.79232 1.68604 4.649 1.68604 4.49955C1.68604 4.35011 1.7454 4.20679 1.85107 4.10111C1.95675 3.99544 2.10007 3.93608 2.24951 3.93608C2.39895 3.93608 2.54228 3.99544 2.64795 4.10111L5.99998 7.45315L9.35201 4.10065C9.45768 3.99497 9.601 3.93561 9.75045 3.93561C9.89989 3.93561 10.0432 3.99497 10.1489 4.10065C10.2546 4.20632 10.3139 4.34964 10.3139 4.49908C10.3139 4.64853 10.2546 4.79185 10.1489 4.89752L10.1479 4.89799Z" fill="#101010"/>
</svg>
